<svg id="Layer_1" data-name="Layer 1" xmlns="http://www.w3.org/2000/svg" viewBox="0 0 889.27 250">
  <defs>
    <style>
      .cls-1 {
        fill: #fee600;
      }
    </style>
  </defs>
  <title>logo</title>
  <path d="M400.08,381.47a62.5,62.5,0,0,1-62.5,62.5,62.5,62.5,0,0,1,62.5,62.5,62.5,62.5,0,0,1,62.5-62.5A62.5,62.5,0,0,1,400.08,381.47Z" transform="translate(-275.26 -325)"/>
  <path d="M599.27,406.36q2.82.13,7.39.27t9,.13q6.33,0,12.11-.13c3.85-.09,6.59-.13,8.2-.13q14.12,0,21.25,5.91a18.88,18.88,0,0,1,7.13,15.2,23.12,23.12,0,0,1-2,9.21A22,22,0,0,1,656,445a34.57,34.57,0,0,1-12,6v.27q10.64,1.34,16.61,5a21.62,21.62,0,0,1,8.41,8.67,24.56,24.56,0,0,1-6.12,29.25q-8.55,7.33-23.74,7.33c-2,0-4.93-.06-8.87-.2s-8.7-.2-14.26-.2q-4.71,0-9.28.07t-7.39.33v-2.69a27.18,27.18,0,0,0,6.92-1.07,4.84,4.84,0,0,0,3.16-3.23,24.35,24.35,0,0,0,.81-7.26v-66.7a24.29,24.29,0,0,0-.81-7.33,5,5,0,0,0-3.16-3.23,23,23,0,0,0-6.92-1Zm33.35,2.69q-6.2,0-8.07,2.29c-1.26,1.52-1.88,4.62-1.88,9.28v66.7q0,7,2,9.08c1.29,1.39,4,2.08,8.13,2.08q13.18,0,19.17-6.12t6-17.41q0-10.36-5.58-16T634,453.29H620.11V451h11.57q7.94,0,12.23-3a15.22,15.22,0,0,0,5.92-8.07,35.18,35.18,0,0,0,1.62-10.82q0-10-4.38-15T632.62,409.05Z" transform="translate(-275.26 -325)"/>
  <path d="M698.9,430.84v58.23c0,3.76.79,6.32,2.36,7.66s4.18,2,7.86,2v2.82c-1.52-.08-3.83-.2-6.92-.33s-6.21-.2-9.35-.2-6.14.06-9.28.2-5.47.25-7,.33v-2.82c3.67,0,6.3-.67,7.86-2s2.36-3.9,2.36-7.66V447q0-6-2.15-8.94t-8.07-2.89v-2.82c2.87.26,5.65.4,8.34.4a57.77,57.77,0,0,0,7.46-.47A38.3,38.3,0,0,0,698.9,430.84Zm-7-32.14a8.73,8.73,0,1,1-6,2.55A8.27,8.27,0,0,1,691.91,398.7Z" transform="translate(-275.26 -325)"/>
  <path d="M734.45,410v22.46h19.9v2.69h-19.9v52q0,6.33,2.28,8.88a8.06,8.06,0,0,0,6.32,2.55,9.12,9.12,0,0,0,7-3.29q3-3.3,5.11-11.09l2.69.67a30.62,30.62,0,0,1-5.32,13.18q-4,5.37-12.17,5.38a21.14,21.14,0,0,1-7.53-1.15,16,16,0,0,1-5.24-3.29,16.62,16.62,0,0,1-4.1-7.4,45.65,45.65,0,0,1-1.15-11.43V435.14H709.43v-2.69h12.91V411.87q3.36-.12,6.46-.53A26.12,26.12,0,0,0,734.45,410Z" transform="translate(-275.26 -325)"/>
  <path d="M778.54,396.27v98.31l-3.56,3-3.57,3-3.63,3.1-2.28-1a22.52,22.52,0,0,0,.73-3.83,37,37,0,0,0,.21-4V412.41q0-6-2.15-8.94t-8.07-2.89v-2.83q4.29.4,8.33.41a57.82,57.82,0,0,0,7.47-.47A38.27,38.27,0,0,0,778.54,396.27Zm21,34.16q11,0,18.29,9.08t7.26,27.5q0,12.11-4.1,20.24a28.56,28.56,0,0,1-11,12.17,28.92,28.92,0,0,1-14.93,4,24.48,24.48,0,0,1-13-3.84,23.12,23.12,0,0,1-9.34-11.36l2.69,1.48A21.73,21.73,0,0,0,794,500.36q9,0,13.51-8.13T812,467a79.46,79.46,0,0,0-1.75-18.15q-1.75-7.26-5.38-10.83a12.72,12.72,0,0,0-9.28-3.56q-6.2,0-11.5,5.58t-6.52,16.34L776,454.5q1.49-11.42,8-17.75A21.54,21.54,0,0,1,799.52,430.43Z" transform="translate(-275.26 -325)"/>
  <path d="M891.41,430.84v56.21c0,4,.74,7,2.22,8.94s4.14,2.89,8,2.89v2.83q-4.17-.4-8.34-.41a66,66,0,0,0-7.46.41,28.2,28.2,0,0,0-6.52,1.48V487.32q-3.37,8.74-9.49,12.44a24.07,24.07,0,0,1-12.57,3.7,22.69,22.69,0,0,1-8.2-1.35,15.38,15.38,0,0,1-5.79-3.76,14.37,14.37,0,0,1-3.49-7,50.54,50.54,0,0,1-.94-10.62V447q0-6-2.16-8.94t-8.06-2.89v-2.82c2.86.26,5.64.4,8.33.4a57.82,57.82,0,0,0,7.47-.47,38.3,38.3,0,0,0,6.52-1.41v52.85a50.29,50.29,0,0,0,.54,7.66,9.73,9.73,0,0,0,2.69,5.65c1.43,1.44,3.76,2.15,7,2.15q7.94,0,13-7.06t5.12-17.28V447q0-6-2.16-8.94t-8.07-2.89v-2.82c2.87.26,5.65.4,8.34.4a57.82,57.82,0,0,0,7.47-.47A38.3,38.3,0,0,0,891.41,430.84Z" transform="translate(-275.26 -325)"/>
  <path d="M930.89,396.14v92.93c0,3.76.78,6.32,2.36,7.66s4.18,2,7.86,2v2.82c-1.52-.08-3.83-.2-6.92-.33s-6.21-.2-9.35-.2-6.14.06-9.28.2-5.47.25-7,.33v-2.82c3.67,0,6.3-.67,7.86-2s2.36-3.9,2.36-7.66V412.28q0-6.06-2.15-8.95c-1.44-1.92-4.13-2.89-8.07-2.89v-2.82q4.3.4,8.34.4a56,56,0,0,0,7.46-.47A37.36,37.36,0,0,0,930.89,396.14Z" transform="translate(-275.26 -325)"/>
  <path d="M969.35,396.14v92.93c0,3.76.79,6.32,2.36,7.66s4.19,2,7.86,2v2.82c-1.52-.08-3.83-.2-6.92-.33s-6.21-.2-9.35-.2-6.14.06-9.28.2-5.47.25-7,.33v-2.82c3.67,0,6.3-.67,7.87-2s2.35-3.9,2.35-7.66V412.28q0-6.06-2.15-8.95c-1.44-1.92-4.13-2.89-8.07-2.89v-2.82q4.31.4,8.34.4a55.94,55.94,0,0,0,7.46-.47A37.36,37.36,0,0,0,969.35,396.14Z" transform="translate(-275.26 -325)"/>
  <path d="M1009.27,430.84v58.23c0,3.76.78,6.32,2.35,7.66s4.19,2,7.87,2v2.82c-1.53-.08-3.84-.2-6.93-.33s-6.21-.2-9.35-.2-6.14.06-9.28.2-5.47.25-7,.33v-2.82q5.52,0,7.87-2c1.57-1.34,2.35-3.9,2.35-7.66V447q0-6-2.15-8.94c-1.44-1.93-4.12-2.89-8.07-2.89v-2.82c2.87.26,5.65.4,8.34.4a57.54,57.54,0,0,0,7.46-.47A38.42,38.42,0,0,0,1009.27,430.84Zm-7-32.14a8.71,8.71,0,1,1-6,2.55A8.27,8.27,0,0,1,1002.27,398.7Z" transform="translate(-275.26 -325)"/>
  <path d="M1054.38,430.43a31.61,31.61,0,0,1,15.47,3.77,26.9,26.9,0,0,1,11,11.83q4.1,8.07,4.1,21t-4.1,20.91a27,27,0,0,1-11,11.77,33.46,33.46,0,0,1-30.86,0,26.76,26.76,0,0,1-11-11.77q-4.11-8-4.1-20.91t4.1-21a26.7,26.7,0,0,1,11-11.83A31.68,31.68,0,0,1,1054.38,430.43Zm0,2.69q-7.67,0-12.57,7.94T1036.9,467q0,18,4.91,25.89t12.57,7.87q7.66,0,12.58-7.87t4.91-25.89q0-18-4.91-25.95T1054.38,433.12Z" transform="translate(-275.26 -325)"/>
  <path d="M1135.34,430.43a23.46,23.46,0,0,1,8.54,1.35,14.85,14.85,0,0,1,9.35,10.49,44.31,44.31,0,0,1,1.07,10.89v35.91c0,3.76.79,6.32,2.36,7.66s4.19,2,7.86,2v2.82c-1.52-.08-3.85-.2-7-.33s-6.19-.2-9.15-.2-5.85.06-8.67.2-5,.25-6.39.33v-2.82q4.85,0,6.86-2c1.35-1.34,2-3.9,2-7.66V450.2a41.29,41.29,0,0,0-.67-7.66,10,10,0,0,0-3-5.65q-2.36-2.14-7.19-2.15a16.13,16.13,0,0,0-13.65,7.06q-5.19,7.05-5.18,17.41v29.86c0,3.76.67,6.32,2,7.66s3.64,2,6.86,2v2.82c-1.43-.08-3.56-.2-6.38-.33s-5.72-.2-8.68-.2-6,.06-9.14.2-5.47.25-7,.33v-2.82q5.52,0,7.87-2c1.57-1.34,2.35-3.9,2.35-7.66V447c0-4-.71-7-2.15-8.94s-4.12-2.89-8.07-2.89v-2.82c2.87.26,5.65.4,8.34.4a57.82,57.82,0,0,0,7.47-.47,38.51,38.51,0,0,0,6.52-1.41v15.87q3.49-9.15,9.75-12.71A26.07,26.07,0,0,1,1135.34,430.43Z" transform="translate(-275.26 -325)"/>
  <path class="cls-1" d="M371.29,510.86q0,30.78-16.31,47.46T302.75,575q-16.87,0-22.18-5.68t-5.31-24.74V451.84H306q34.83,0,50,15.4T371.29,510.86Z" transform="translate(-275.26 -325)"/>
  <path class="cls-1" d="M353.7,379.61a96.34,96.34,0,0,1-4.4,29.51,41.66,41.66,0,0,1-16.13,22q-11.73,8.25-33.35,8.25H275.26V356.52q0-19,5.13-25.29t22-6.23q27.5,0,39.4,13.74T353.7,379.61Z" transform="translate(-275.26 -325)"/>
  <path class="cls-1" d="M524.9,356.52v82.84H500.34q-21.61,0-33.36-8.25a41.69,41.69,0,0,1-16.12-22,96,96,0,0,1-4.4-29.51q0-27.12,11.91-40.87T497.78,325q16.86,0,22,6.23T524.9,356.52Z" transform="translate(-275.26 -325)"/>
  <path class="cls-1" d="M524.9,451.84v92.74q0,19-5.32,24.74T497.41,575q-35.93,0-52.23-16.68t-16.32-47.46q0-28.23,15.22-43.62t50-15.4Z" transform="translate(-275.26 -325)"/>
</svg>
