<svg id="Layer_1" data-name="Layer 1" xmlns="http://www.w3.org/2000/svg" viewBox="0 0 105 107.45"><defs><style>.cls-1{fill:#3c3c3b}</style></defs><path class="cls-1" d="M483 401.84l-12.51-26.63 5.64-2.65 10.32 22 10.09-4.74 2.18 4.64zm-7.87 18.88l-27.63-10.43 2.21-5.84 22.81 8.61 4-10.47 4.82 1.82zm-25.4 13.63l27.63-9.67 2 5.84-27.63 9.67zm45.18 40.32l-7-3 .3-21.26-.31-.13-15.14 14.92-7-3 11.49-26.93 5.52 2.36-7.47 17.52.22.1 14.39-14.42 3.76 1.6-.48 20.44.22.09 7.5-17.59 5.53 2.36zm19.44-4.98a8.76 8.76 0 004.91 1 11.9 11.9 0 005.45-2l9.69-6.28-15.92-24.56-5.2 3.36 5.16 8-4.36 2.79a12.21 12.21 0 00-4.15 4.17 8.73 8.73 0 00-1.17 4.89 10.33 10.33 0 001.75 5 10.46 10.46 0 003.84 3.63zm.6-9.58a4.11 4.11 0 01.53-2.4 6.2 6.2 0 012.14-2.13l3.52-2.28 5.31 8.19-3.5 2.27a6.55 6.55 0 01-2.83 1.11 4.05 4.05 0 01-2.39-.48 5.93 5.93 0 01-2.78-4.28zm32.77-13.51l-26.33-12.8 2.71-5.56L550.42 441zm-22.16-27.92l2.23 6.46 8.71-9.59.21.21a8.16 8.16 0 004.22 2.39 9.69 9.69 0 005.15-.45 10.1 10.1 0 004.37-2.83 8.37 8.37 0 002-4.48 12.56 12.56 0 00-.74-5.74l-3.79-10.91-27.66 9.59 2 5.84 9.81-3.39 1.48 4.26zm19.58-17.44l1.37 3.95a7.15 7.15 0 01.47 3 3.61 3.61 0 01-.86 2.16 4.83 4.83 0 01-2.13 1.35 4.63 4.63 0 01-2.47.25 3.59 3.59 0 01-1.95-1.18 7.67 7.67 0 01-1.43-2.62l-1.37-4z" transform="translate(-447.5 -367.22)"/><path d="M97.41 89.13l3.5-7.78 3.5 7.78a5.78 5.78 0 01.09 4.65 4.07 4.07 0 01-3.61 2.75h0a4.07 4.07 0 01-3.59-2.75 5.78 5.78 0 01.11-4.65z" stroke="#1d1d1b" stroke-miterlimit="10" stroke-width=".02" fill="#3c3c3b"/><path class="cls-1" d="M511 398l-9.79-3.19 9-27.61 9.87 3.22a15.47 15.47 0 016.63 4 11.84 11.84 0 013.09 6.25 18.61 18.61 0 01-4.83 14.8 11.77 11.77 0 01-6.21 3.24A15.5 15.5 0 01511 398zm-2.32-6.29l3.71 1.21a9.87 9.87 0 004.66.5 6.27 6.27 0 003.61-2 12.83 12.83 0 002.54-4.74 12.61 12.61 0 00.73-5.29 6.14 6.14 0 00-1.73-3.73 9.74 9.74 0 00-4.05-2.34l-3.72-1.21zm-10.07 21.57l-8.21-8.21a18.25 18.25 0 00-3.87 3.88l8.2 8.21h-11.58a18.42 18.42 0 000 5.48h11.57l-8.16 8.16a18.25 18.25 0 003.88 3.87l8.16-8.15V438a17.54 17.54 0 002.73.21 17.9 17.9 0 002.75-.21v-11.48l8.14 8.14a18.53 18.53 0 003.89-3.87l-8.11-8.15h11.56a19.7 19.7 0 00.21-2.79 18.31 18.31 0 00-.2-2.69H508l8.2-8.2a18.25 18.25 0 00-3.87-3.88l-8.2 8.2v-11.62a19.25 19.25 0 00-2.75-.2 18.86 18.86 0 00-2.73.2z" transform="translate(-447.5 -367.22)"/></svg>