<?xml version="1.0" standalone="no"?>
<!DOCTYPE svg PUBLIC "-//W3C//DTD SVG 20010904//EN"
 "http://www.w3.org/TR/2001/REC-SVG-20010904/DTD/svg10.dtd">
<svg version="1.0" xmlns="http://www.w3.org/2000/svg"
 width="260.000000pt" height="260.000000pt" viewBox="0 0 260.000000 260.000000"
 preserveAspectRatio="xMidYMid meet">
<metadata>
Created by potrace 1.11, written by Peter Selinger 2001-2013
</metadata>
<g transform="translate(0.000000,260.000000) scale(0.100000,-0.100000)"
fill="#000000" stroke="none">
<path d="M1135 2584 c-443 -57 -822 -334 -1011 -739 -31 -68 -72 -179 -80
-220 -2 -11 -11 -56 -20 -100 -23 -107 -23 -329 0 -450 117 -630 654 -1076
1286 -1069 80 0 219 12 230 19 3 2 22 6 42 9 65 10 190 56 296 108 250 122
459 332 582 583 43 89 83 192 97 250 73 323 39 633 -102 910 -249 490 -777
770 -1320 699z"/>
</g>
</svg>
