<?xml version="1.0" standalone="no"?>
<!DOCTYPE svg PUBLIC "-//W3C//DTD SVG 20010904//EN"
 "http://www.w3.org/TR/2001/REC-SVG-20010904/DTD/svg10.dtd">
<svg version="1.0" xmlns="http://www.w3.org/2000/svg"
 width="856.000000pt" height="856.000000pt" viewBox="0 0 856.000000 856.000000"
 preserveAspectRatio="xMidYMid meet">
<metadata>
Created by potrace 1.11, written by Peter Selinger 2001-2013
</metadata>
<g transform="translate(0.000000,856.000000) scale(0.100000,-0.100000)"
fill="#000000" stroke="none">
<path d="M5024 8353 c-37 -115 -69 -212 -70 -218 -2 -10 -51 -157 -61 -185 -3
-8 -7 -19 -9 -25 -6 -26 -96 -300 -100 -307 -3 -4 -7 -16 -9 -26 -4 -21 -63
-209 -75 -237 -11 -27 -92 -276 -94 -289 -1 -6 -7 -24 -13 -41 -11 -27 -151
-455 -157 -480 -2 -5 -6 -17 -9 -25 -3 -8 -13 -40 -22 -70 -9 -30 -20 -62 -25
-71 -7 -13 7 -20 77 -43 47 -16 91 -29 97 -31 6 -1 18 -5 26 -8 27 -11 105
-38 121 -42 9 -2 99 -30 200 -64 343 -112 368 -120 426 -131 169 -33 366 -31
503 5 36 10 70 18 75 20 50 11 186 82 246 128 94 71 125 101 203 197 59 73
200 323 210 373 2 7 6 21 10 32 22 59 27 72 31 93 12 53 14 64 19 80 3 9 8 33
11 52 3 19 8 42 11 51 5 17 15 148 16 214 1 46 -9 188 -17 225 -18 91 -104
297 -138 332 -7 7 -23 29 -36 48 -24 35 -180 190 -192 190 -3 0 -19 11 -35 25
-78 67 -229 135 -504 226 -151 50 -279 92 -285 93 -5 1 -80 25 -165 53 -85 28
-165 54 -176 57 -20 6 -26 -7 -90 -201z m490 -368 c28 -9 60 -20 71 -25 11 -4
61 -20 110 -35 50 -16 95 -32 101 -36 6 -5 14 -6 17 -2 4 3 7 2 7 -4 0 -6 11
-14 24 -17 43 -11 170 -102 218 -156 54 -60 95 -140 113 -220 13 -51 13 -235
1 -286 -2 -12 -7 -37 -10 -55 -3 -19 -15 -63 -26 -99 -12 -36 -23 -72 -25 -81
-7 -34 -77 -176 -118 -239 -82 -126 -164 -193 -302 -245 -42 -16 -221 -23
-275 -10 -14 3 -38 8 -55 10 -16 3 -50 12 -75 20 -25 8 -49 16 -55 17 -22 5
-167 57 -172 62 -4 3 -16 6 -27 6 -12 1 -31 6 -43 13 l-21 12 39 120 c22 66
43 127 46 135 3 8 7 20 9 27 1 7 19 63 39 125 45 137 45 138 44 141 0 1 9 27
21 57 12 30 23 62 25 70 4 18 83 264 136 420 22 63 39 117 40 120 0 3 12 44
27 91 30 96 23 93 116 64z"/>
<path d="M2295 8096 c-170 -81 -273 -130 -312 -147 -24 -10 -43 -25 -43 -33 0
-19 32 -90 43 -94 4 -2 7 -10 7 -17 0 -7 28 -71 62 -142 34 -70 61 -131 60
-135 -1 -5 2 -8 8 -8 6 0 9 -3 8 -7 -2 -5 14 -42 34 -83 38 -79 88 -185 136
-291 17 -35 53 -113 82 -174 29 -60 85 -180 125 -265 40 -85 90 -193 113 -240
22 -47 59 -125 82 -175 57 -119 97 -205 164 -350 30 -66 60 -121 65 -123 5 -2
45 13 88 33 143 68 206 97 277 130 39 18 129 60 200 94 70 34 133 61 138 61 5
0 16 7 24 15 9 8 24 15 35 15 10 0 19 5 19 10 0 6 4 10 10 10 5 0 43 15 82 34
391 182 379 175 369 194 -11 20 -102 214 -138 292 -14 30 -26 56 -27 57 -2 2
-22 -7 -47 -19 -24 -12 -46 -22 -49 -23 -7 -1 -102 -45 -120 -56 -8 -5 -22
-12 -30 -15 -33 -14 -151 -69 -278 -130 -73 -35 -135 -64 -137 -64 -2 0 -36
-15 -73 -34 l-69 -33 -46 96 c-90 189 -155 327 -179 381 -25 53 -100 213 -158
335 -50 105 -117 248 -140 300 -13 28 -56 119 -96 204 -41 84 -74 155 -74 157
0 2 -27 61 -60 130 -33 69 -60 130 -60 135 0 15 -22 10 -95 -25z"/>
<path d="M8025 6423 c-38 -13 -77 -26 -85 -28 -8 -2 -28 -9 -45 -16 -16 -7
-32 -13 -35 -14 -18 -5 -73 -23 -195 -67 -77 -27 -147 -51 -155 -53 -8 -2 -42
-13 -75 -25 -96 -35 -289 -102 -300 -104 -5 -2 -21 -7 -35 -13 -14 -6 -54 -20
-90 -32 -36 -12 -72 -25 -80 -28 -8 -3 -19 -7 -25 -8 -16 -4 -168 -56 -190
-65 -27 -11 -99 -35 -117 -39 -4 -1 -38 -13 -75 -27 -38 -15 -93 -34 -123 -44
-74 -25 -448 -155 -483 -169 -22 -9 -26 -14 -18 -28 5 -10 37 -101 71 -203 34
-102 67 -197 73 -212 13 -31 11 -31 117 7 55 20 100 35 120 40 3 1 12 5 20 8
23 10 453 158 470 162 8 2 26 8 39 13 24 9 26 6 69 -117 24 -69 45 -134 47
-143 2 -9 9 -26 15 -37 6 -12 7 -28 3 -35 -8 -14 -113 -129 -254 -281 -89 -95
-111 -119 -204 -220 -44 -48 -99 -108 -122 -133 -24 -25 -43 -51 -43 -56 0 -6
27 -90 61 -186 33 -96 67 -195 75 -220 8 -25 20 -58 26 -73 l11 -29 46 50 c25
28 78 85 117 128 40 44 83 91 95 105 13 14 56 60 94 103 39 43 84 93 100 110
17 18 62 67 100 110 39 43 86 95 105 116 l36 38 53 -49 c29 -27 54 -49 56 -49
1 0 28 -16 60 -35 101 -60 174 -79 310 -80 120 0 181 7 214 25 10 5 20 7 23 5
6 -6 136 48 194 80 98 55 197 145 250 226 16 24 33 47 39 51 5 4 6 8 1 8 -5 0
-4 6 1 13 13 16 53 124 60 162 11 57 12 270 2 320 -6 28 -12 60 -15 73 -6 30
-38 127 -109 327 -72 205 -97 278 -100 290 -1 6 -5 17 -8 25 -4 8 -25 69 -47
135 -23 66 -44 127 -47 135 -3 8 -7 20 -9 25 -1 6 -6 19 -11 31 l-8 21 -70
-24z m-78 -784 c66 -190 67 -196 68 -299 0 -84 -4 -113 -20 -147 -11 -24 -23
-43 -27 -43 -5 0 -8 -5 -8 -11 0 -17 -56 -63 -112 -91 -86 -44 -101 -48 -193
-52 -110 -5 -186 37 -259 144 -31 45 -64 107 -70 130 -6 20 -59 179 -66 195
-5 11 -14 38 -21 60 -6 22 -16 50 -22 62 -10 21 -5 37 11 39 4 0 14 3 22 7 26
10 353 124 375 131 6 2 19 6 30 10 84 32 101 38 105 38 3 0 10 2 15 4 69 25
91 31 98 25 4 -4 38 -95 74 -202z"/>
<path d="M4199 5821 l-26 -6 -2 -455 c-1 -250 -4 -456 -6 -458 -2 -2 -148 141
-324 317 -177 177 -324 321 -327 321 -22 0 -180 -149 -258 -243 -37 -43 -46
-60 -38 -70 6 -7 151 -153 322 -324 170 -171 310 -313 310 -316 0 -2 -192 -5
-427 -5 -236 -1 -441 -1 -458 -1 -28 -1 -30 -4 -34 -44 -8 -85 -3 -354 7 -373
10 -18 26 -19 461 -19 248 0 451 -2 451 -5 0 -3 -144 -149 -320 -324 -203
-204 -317 -324 -312 -332 25 -43 163 -186 242 -250 19 -16 37 -32 38 -36 2 -5
8 -8 14 -8 6 0 149 139 318 308 169 169 315 314 324 321 14 12 15 -27 14 -438
0 -248 2 -454 5 -458 23 -22 423 -21 430 2 2 6 3 211 3 458 -1 246 0 447 2
447 1 0 146 -144 323 -320 223 -224 324 -318 333 -313 61 36 296 273 296 299
0 2 -143 147 -319 324 -175 176 -316 322 -312 323 3 2 210 3 459 3 445 -1 452
-1 453 19 1 11 3 31 5 45 12 80 3 354 -11 368 -2 3 -207 5 -455 4 -247 0 -450
3 -450 7 0 3 144 150 320 326 l320 320 -51 64 c-71 87 -236 241 -258 241 -3 0
-151 -146 -328 -324 l-323 -324 0 137 c0 75 0 283 0 463 0 300 -5 361 -25 328
-4 -7 -11 -8 -18 -2 -13 10 -326 13 -368 3z"/>
<path d="M2396 5706 c-9 -19 -16 -40 -16 -48 0 -8 -3 -18 -7 -22 -4 -3 -12
-21 -19 -39 -26 -71 -95 -253 -101 -267 -3 -8 -7 -19 -9 -25 -1 -5 -15 -44
-32 -85 -27 -67 -77 -199 -104 -273 -13 -35 -25 -42 -43 -27 -8 7 -15 9 -15 6
0 -4 -10 -1 -22 6 -13 6 -27 13 -33 15 -5 1 -50 17 -100 36 -49 19 -218 82
-375 141 -157 59 -298 113 -315 120 -16 8 -41 17 -55 21 -14 3 -44 15 -67 26
-24 10 -49 19 -57 19 -8 0 -18 5 -21 10 -3 6 -16 10 -29 10 -12 0 -26 4 -31 9
-6 5 -30 16 -55 25 -25 8 -92 33 -150 56 -58 23 -112 43 -120 45 -8 2 -88 32
-178 66 -89 34 -164 60 -166 58 -2 -2 -42 -104 -89 -227 -74 -195 -83 -225
-70 -237 8 -8 21 -16 29 -16 18 -2 24 -4 54 -16 14 -6 42 -18 63 -26 20 -9 37
-14 37 -11 0 3 12 -2 28 -10 15 -8 90 -38 167 -66 77 -29 149 -56 160 -60 11
-5 58 -23 105 -40 47 -17 94 -35 105 -40 11 -4 47 -18 80 -30 33 -12 74 -29
92 -36 17 -8 33 -14 36 -14 3 0 18 -5 34 -12 15 -6 30 -12 33 -13 18 -4 128
-47 142 -55 10 -6 26 -10 36 -10 10 0 22 -4 27 -8 9 -8 96 -43 120 -48 14 -4
514 -192 545 -206 14 -6 30 -13 35 -14 15 -4 86 -31 120 -45 17 -7 35 -13 40
-15 6 -1 27 -10 49 -19 21 -9 42 -13 46 -8 3 4 19 42 35 83 15 41 33 89 40
105 7 17 18 44 24 60 6 17 16 44 22 60 7 17 13 35 14 41 2 6 9 27 17 45 8 19
24 59 35 89 12 30 24 64 29 75 4 11 8 22 9 25 1 3 5 14 10 25 13 33 69 180 70
185 1 3 5 14 9 25 71 180 129 332 130 340 3 9 10 29 37 97 11 27 6 48 -12 48
-9 0 -61 19 -271 100 -42 17 -79 30 -81 30 -3 0 -12 -15 -21 -34z"/>
<path d="M2440 3970 c-33 -11 -254 -88 -400 -140 -63 -23 -149 -52 -190 -66
-41 -14 -82 -28 -90 -31 -8 -3 -19 -7 -25 -8 -5 -2 -34 -12 -62 -24 -29 -11
-53 -18 -53 -15 0 4 -6 2 -12 -3 -7 -6 -31 -16 -53 -23 -22 -7 -44 -15 -50
-19 -5 -3 -15 -6 -21 -7 -5 -1 -57 -18 -114 -39 -57 -21 -109 -38 -114 -40 -6
-1 -24 -7 -41 -14 -16 -7 -82 -30 -145 -52 -63 -21 -167 -57 -230 -79 -161
-58 -223 -79 -400 -140 -85 -29 -156 -54 -158 -56 -2 -1 32 -106 75 -233 79
-236 79 -235 123 -218 8 3 96 34 195 68 99 33 189 65 200 70 11 5 34 13 50 18
17 5 95 32 175 61 80 28 152 53 160 55 23 6 103 35 125 44 11 5 70 26 130 46
61 20 119 41 130 45 11 5 34 13 50 18 17 6 102 36 190 67 88 31 165 58 170 59
19 4 90 29 100 35 6 3 15 6 20 7 6 1 82 28 170 59 88 32 188 67 223 78 34 12
62 26 62 33 0 6 -34 110 -75 230 -41 120 -75 219 -75 221 0 4 -12 2 -40 -7z"/>
<path d="M6095 3485 c-58 -119 -105 -219 -105 -224 0 -8 204 -111 221 -111 5
0 9 -4 9 -10 0 -5 5 -10 11 -10 6 0 77 -32 157 -71 81 -40 219 -107 307 -149
88 -43 255 -124 370 -180 116 -56 278 -135 360 -175 83 -40 262 -128 400 -195
230 -112 250 -120 262 -104 7 10 13 24 13 31 0 7 5 13 10 13 6 0 10 4 10 10 0
5 38 89 85 187 77 158 93 206 68 202 -15 -2 -53 13 -53 22 0 5 -3 8 -7 7 -5
-1 -60 23 -123 54 -63 31 -189 92 -280 136 -91 43 -248 120 -350 170 -102 49
-246 119 -320 155 -74 36 -238 116 -365 178 -126 62 -232 113 -235 114 -6 1
-166 78 -273 132 l-68 34 -104 -216z"/>
<path d="M2474 3132 c-9 -6 -167 -358 -178 -397 -2 -5 -11 -28 -20 -50 -10
-22 -31 -71 -48 -110 -17 -38 -36 -83 -43 -100 -8 -16 -39 -91 -70 -165 -32
-74 -60 -139 -63 -145 -4 -5 -8 -18 -9 -28 -2 -10 -10 -28 -18 -40 -8 -12 -21
-40 -28 -62 -8 -22 -24 -62 -37 -90 -12 -27 -26 -59 -30 -70 -5 -11 -20 -46
-34 -77 -14 -31 -26 -59 -26 -62 0 -6 -12 -34 -66 -153 -13 -28 -24 -54 -24
-57 0 -2 -13 -34 -30 -69 -16 -36 -30 -71 -30 -79 0 -8 -4 -18 -9 -24 -5 -5
-37 -76 -71 -159 -35 -82 -66 -154 -70 -160 -19 -29 -3 -47 65 -76 39 -16 79
-33 90 -38 24 -11 76 -33 253 -109 l133 -57 257 253 c141 139 412 406 601 593
209 206 350 338 358 335 11 -5 12 -84 7 -458 -3 -249 -7 -575 -8 -724 -2 -149
-6 -276 -10 -282 -3 -6 -2 -13 4 -17 6 -4 8 -10 5 -16 -9 -13 -10 -93 -2 -106
4 -6 4 -14 -1 -17 -6 -4 -7 -26 -3 -69 1 -4 20 -16 44 -27 53 -25 407 -176
468 -200 l46 -19 23 57 c13 31 38 90 57 130 18 41 33 76 33 78 0 3 10 26 22
52 12 26 23 53 24 59 4 21 29 73 35 73 3 0 6 6 6 13 0 6 7 28 15 47 31 67 73
165 74 170 1 8 22 56 49 116 14 30 25 57 25 59 0 2 13 33 28 67 16 35 40 90
53 123 13 33 27 62 31 65 4 3 9 15 11 25 2 11 10 36 19 55 33 70 68 151 68
155 0 4 32 78 60 140 24 53 92 211 94 220 1 6 10 26 18 45 9 19 37 84 62 144
26 60 53 123 61 140 33 72 45 110 38 116 -5 4 -39 19 -78 35 -38 16 -88 36
-110 46 -183 80 -228 99 -235 99 -6 0 -53 -92 -56 -109 -1 -6 -18 -46 -64
-149 -16 -34 -26 -62 -23 -62 3 0 1 -6 -4 -13 -6 -6 -41 -84 -78 -172 -37 -88
-75 -176 -83 -195 -9 -19 -16 -37 -17 -40 -1 -3 -7 -16 -13 -30 -12 -28 -77
-182 -142 -335 -23 -55 -50 -119 -61 -141 -10 -23 -27 -63 -37 -90 -40 -101
-44 -76 -37 237 4 162 9 373 11 469 4 205 14 597 18 757 l2 111 -45 20 c-115
51 -241 102 -251 102 -6 0 -266 -256 -578 -570 -312 -314 -573 -570 -580 -570
-8 0 -9 5 -3 18 8 14 18 39 26 62 1 3 11 27 23 53 12 27 22 50 22 53 0 2 12
29 27 61 15 32 27 60 28 63 0 3 9 26 19 50 24 56 45 105 85 200 18 41 36 84
41 95 26 57 92 211 94 220 1 6 9 26 18 45 9 19 38 85 63 145 26 61 52 121 58
135 6 14 11 27 11 30 1 3 14 32 29 65 50 107 51 106 -45 145 -46 18 -105 44
-133 56 -27 13 -79 35 -115 49 -36 15 -70 31 -75 35 -6 5 -16 6 -21 2z"/>
<path d="M5615 2845 c-71 -46 -160 -103 -198 -126 -37 -23 -69 -45 -72 -49 -3
-4 35 -70 85 -146 49 -77 112 -175 140 -219 28 -44 80 -125 115 -180 36 -55
60 -102 54 -104 -6 -2 -44 -25 -85 -52 -40 -27 -78 -49 -84 -49 -5 0 -10 -4
-10 -8 0 -5 -11 -14 -25 -20 -14 -7 -31 -17 -38 -22 -7 -6 -55 -39 -107 -73
-180 -116 -324 -290 -375 -451 -28 -89 -44 -188 -38 -239 2 -17 3 -39 4 -47 0
-12 28 -148 34 -170 9 -29 76 -172 85 -180 3 -3 20 -27 39 -55 19 -27 59 -76
90 -108 55 -58 160 -137 180 -137 6 0 11 -3 11 -8 0 -4 15 -13 33 -20 17 -8
41 -18 52 -22 23 -10 53 -19 87 -26 13 -2 37 -7 53 -11 62 -12 196 -7 270 11
11 3 39 10 62 16 23 5 77 26 120 46 43 21 80 38 83 38 6 2 51 31 220 142 74
49 139 91 145 93 5 2 31 19 57 38 26 18 52 33 58 33 5 0 10 5 10 10 0 6 4 10
9 10 5 0 59 33 120 74 61 41 111 71 111 68 0 -4 4 -2 8 3 13 18 79 64 85 59 2
-3 7 2 10 11 4 8 2 15 -3 15 -5 0 -12 10 -16 22 -3 12 -15 31 -25 42 -11 11
-19 26 -19 33 0 7 -3 13 -7 13 -5 0 -24 27 -43 60 -19 33 -38 60 -42 60 -5 0
-8 5 -8 10 0 6 -22 44 -50 85 -27 41 -50 79 -50 85 0 5 -3 10 -8 10 -4 0 -29
35 -55 78 -26 42 -74 118 -107 167 -32 50 -86 133 -120 185 -34 52 -121 187
-195 300 -73 113 -170 264 -216 335 -46 72 -88 133 -93 137 -7 5 -7 8 -1 8 7
0 7 3 0 8 -13 9 -85 120 -84 128 0 4 -3 10 -8 13 -13 9 -73 100 -73 112 0 5
-4 9 -9 9 -5 0 -11 9 -14 20 -3 11 -9 20 -14 20 -4 0 -66 -38 -138 -85z m420
-1252 c39 -59 72 -112 74 -118 2 -5 7 -12 10 -15 9 -8 51 -69 51 -74 0 -3 49
-80 109 -171 60 -91 106 -165 102 -165 -4 0 -16 -8 -27 -17 -11 -10 -28 -22
-37 -28 -9 -5 -70 -45 -136 -87 -66 -43 -125 -78 -131 -78 -5 0 -10 -4 -10
-10 0 -5 -9 -10 -19 -10 -11 0 -22 -4 -25 -9 -10 -15 -136 -34 -190 -27 -142
16 -284 159 -327 329 -27 108 12 234 100 321 36 37 183 146 195 146 2 0 43 27
92 60 49 33 91 60 94 60 3 0 37 -48 75 -107z"/>
<path d="M8120 2059 c0 -7 -21 -57 -46 -113 -73 -159 -87 -190 -90 -205 -1 -7
-7 -18 -13 -24 -6 -6 -11 -19 -11 -29 0 -10 -4 -18 -10 -18 -5 0 -10 -4 -10
-10 0 -5 -11 -33 -24 -62 -13 -29 -34 -75 -46 -103 -43 -95 -56 -148 -54 -230
1 -87 6 -114 31 -178 52 -133 171 -218 296 -213 48 2 63 6 100 21 70 31 133
94 165 167 39 88 46 118 46 198 0 117 3 109 -207 570 -11 25 -21 47 -22 50 0
3 -16 37 -34 75 -18 39 -37 80 -42 93 -9 23 -29 31 -29 11z"/>
</g>
</svg>
