<?xml version="1.0" encoding="utf-8"?><svg viewBox="0 0 100 100" xmlns="http://www.w3.org/2000/svg" xmlns:xlink="http://www.w3.org/1999/xlink"><style>:root>svg{display:none}:root>svg:target{display:block}</style><svg data-name="Layer 1" viewBox="0 0 100 100" id="bg_smile-01" xmlns="http://www.w3.org/2000/svg"><path class="acls-1" d="M95.84 39.77H66.7L87.34 19a46.37 46.37 0 00-9.74-9.83L56.93 30V.52A46.52 46.52 0 0050 0a47.31 47.31 0 00-6.88.51V30L22.43 9.14A46.65 46.65 0 0012.68 19l20.68 20.77H4.16a47.67 47.67 0 00-.49 6.81 47.16 47.16 0 00.53 7.07h91.6a47.16 47.16 0 00.53-7.07 47.67 47.67 0 00-.49-6.81zM26.9 62.56h11.71v11.71H26.9zM59.7 62.56h11.71v11.71H59.7zM50 100a49.93 49.93 0 01-15.2-2.21A41.67 41.67 0 0122 91v-9a27.14 27.14 0 005.36 3.23 47.6 47.6 0 006.93 2.6A58.34 58.34 0 0042 89.52a52.91 52.91 0 008 .62 53.59 53.59 0 0010.61-1.08 55.54 55.54 0 009.92-2.94A30.15 30.15 0 0078 82v9a41.67 41.67 0 01-12.85 6.78A49.85 49.85 0 0150 100z"/></svg><svg data-name="Layer 1" viewBox="0 0 100 100" id="bg_smile-02" xmlns="http://www.w3.org/2000/svg"><path class="bcls-1" d="M87.6 10.59c-8.45-3.94-18.4-1.23-26 5.7A34.75 34.75 0 0050 41.11a34.75 34.75 0 00-11.55-24.82c-7.65-6.93-17.6-9.64-26.05-5.7S-.37 23.9 0 34.21A34 34 0 0012 58.5l38 32.73L88 58.5a34 34 0 0012-24.29c.37-10.31-3.95-19.68-12.4-23.62z"/></svg><svg data-name="Layer 1" viewBox="0 0 100 100" id="bg_smile-03" xmlns="http://www.w3.org/2000/svg"><path class="ccls-1" d="M95.84 39.77H66.7L87.34 19a46.37 46.37 0 00-9.74-9.83L56.93 30V.52A46.52 46.52 0 0050 0a47.31 47.31 0 00-6.88.51V30L22.43 9.14A46.65 46.65 0 0012.68 19l20.68 20.77H4.16a47.67 47.67 0 00-.49 6.81 47.16 47.16 0 00.53 7.07h91.6a47.16 47.16 0 00.53-7.07 47.67 47.67 0 00-.49-6.81zM26.9 62.56h11.71v11.71H26.9zM59.7 62.56h11.71v11.71H59.7zM50 82a49.62 49.62 0 00-15.2 2.22A41.64 41.64 0 0022 90.94V100a27.63 27.63 0 015.36-3.23 48.78 48.78 0 016.93-2.6A60 60 0 0142 92.43a52.91 52.91 0 018-.62 53.59 53.59 0 0110.61 1.08 55.54 55.54 0 019.92 2.94A30.47 30.47 0 0178 100v-9.06a41.64 41.64 0 00-12.85-6.77A49.54 49.54 0 0050 82z"/></svg><svg data-name="Layer 1" viewBox="0 0 100 100" id="bg_smile-04" xmlns="http://www.w3.org/2000/svg"><path class="dcls-1" d="M100 13.09a63 63 0 00-6-6.89A63.76 63.76 0 0086.86 0L50 36.91 13.08 0a61.25 61.25 0 00-6.9 6A62 62 0 000 13.13L36.89 50 0 86.87A62 62 0 006.18 94a61.25 61.25 0 006.9 6L50 63.09 86.86 100A63.76 63.76 0 0094 93.8a63 63 0 006-6.89L63.08 50z"/></svg><svg data-name="Layer 1" viewBox="0 0 100 100" id="bg_smile-05" xmlns="http://www.w3.org/2000/svg"><path class="ecls-1" d="M73.68 61.65a3.61 3.61 0 00-3.94.86A5.27 5.27 0 0068 66.26a5.22 5.22 0 00-1.74-3.75 3.32 3.32 0 00-5.81 2.71 5.16 5.16 0 001.82 3.67l5.73 5 5.74-5a5.16 5.16 0 001.82-3.67 3.63 3.63 0 00-1.88-3.57zM36 61.65a3.6 3.6 0 00-3.93.86 5.23 5.23 0 00-1.75 3.75 5.23 5.23 0 00-1.75-3.75 3.6 3.6 0 00-3.93-.86 3.62 3.62 0 00-1.87 3.57 5.14 5.14 0 001.81 3.67l5.74 5 5.74-5a5.11 5.11 0 001.81-3.67A3.62 3.62 0 0036 61.65zM95.84 39.77H66.7L87.34 19a46.37 46.37 0 00-9.74-9.83L56.93 30V.52A46.52 46.52 0 0050 0a47.31 47.31 0 00-6.88.51V30L22.43 9.14A46.65 46.65 0 0012.68 19l20.68 20.77H4.16a47.67 47.67 0 00-.49 6.81 47.16 47.16 0 00.53 7.07h91.6a47.16 47.16 0 00.53-7.07 47.67 47.67 0 00-.49-6.81zM50 100a49.93 49.93 0 01-15.2-2.21A41.67 41.67 0 0122 91v-9a27.14 27.14 0 005.36 3.23 47.6 47.6 0 006.93 2.6A58.34 58.34 0 0042 89.52a52.91 52.91 0 008 .62 53.59 53.59 0 0010.61-1.08 55.54 55.54 0 009.92-2.94A30.15 30.15 0 0078 82v9a41.67 41.67 0 01-12.85 6.78A49.85 49.85 0 0150 100z"/></svg><svg data-name="Layer 1" viewBox="0 0 100 100" id="bg_smile-06" xmlns="http://www.w3.org/2000/svg"><path class="fcls-1" d="M95.86 39.78H66.7L87.36 19a46.89 46.89 0 00-9.74-9.85L56.93 30V.52A46.52 46.52 0 0050 0a47.21 47.21 0 00-6.88.51V30L22.41 9.15A46.89 46.89 0 0012.66 19l20.69 20.78H4.14a47.92 47.92 0 00-.49 6.82 47.06 47.06 0 00.53 7.07h91.64a47.06 47.06 0 00.53-7.07 47.92 47.92 0 00-.49-6.82zM50 82a50 50 0 00-15.2 2.16 41.94 41.94 0 00-12.86 6.78V100a28 28 0 015.37-3.23 48.78 48.78 0 016.93-2.6A58.49 58.49 0 0142 92.43a52.91 52.91 0 018-.62 53.59 53.59 0 0110.61 1.08 55.41 55.41 0 019.93 2.94 30.55 30.55 0 017.52 4.17v-9.06a41.94 41.94 0 00-12.86-6.78A50 50 0 0050 82zM71.41 64.09a7.56 7.56 0 00-.7-.8 7 7 0 00-.84-.72l-4.32 4.31-4.32-4.32a6 6 0 00-.81.7 5.71 5.71 0 00-.72.84l4.3 4.32-4.3 4.31a5.71 5.71 0 00.72.84 6 6 0 00.81.7L65.55 70l4.32 4.31a7 7 0 00.84-.72 7.56 7.56 0 00.7-.8l-4.33-4.32zM38.61 64.09a6.57 6.57 0 00-.7-.8 5.71 5.71 0 00-.84-.72l-4.32 4.31-4.32-4.32a7.51 7.51 0 00-.81.7 7.24 7.24 0 00-.72.84l4.32 4.32-4.32 4.31a7.24 7.24 0 00.72.84 7.51 7.51 0 00.81.7L32.75 70l4.32 4.31a5.71 5.71 0 00.84-.72 6.57 6.57 0 00.7-.8l-4.32-4.32z"/></svg><svg data-name="Layer 1" viewBox="0 0 100 100" id="bg_smile-07" xmlns="http://www.w3.org/2000/svg"><path class="gcls-1" d="M42.58 32.15L20.24 9.82A50.34 50.34 0 009.72 20.37L32 42.69H.53A50.32 50.32 0 000 50a51.26 51.26 0 00.57 7.59H32L9.84 79.79A50.34 50.34 0 0020.4 90.3l22.18-22.17v31.32A50.43 50.43 0 0050 100a49.89 49.89 0 007.48-.56V68.13l22.15 22.15a50.34 50.34 0 0010.55-10.52L68 57.59h31.43A51.26 51.26 0 00100 50a50.32 50.32 0 00-.53-7.31H68l22.3-22.28A50.15 50.15 0 0079.79 9.84L57.48 32.15V.56A49.89 49.89 0 0050 0a50.43 50.43 0 00-7.42.55z"/></svg><svg data-name="Layer 1" viewBox="0 0 100 100" id="bg_smile-08" xmlns="http://www.w3.org/2000/svg"><path class="hcls-1" d="M78.85 32l-17.46 6.62L68 21.16a12.71 12.71 0 017-7.3c3.56-1.45 7.39-1.13 9.85 1.33 2.45 2.45 2.77 6.28 1.32 9.84A12.71 12.71 0 0178.85 32zM21.18 32l17.46 6.62L32 21.16a12.7 12.7 0 00-7-7.3c-3.55-1.45-7.38-1.13-9.84 1.33-2.46 2.45-2.78 6.28-1.32 9.84A12.65 12.65 0 0021.18 32zM78.85 67.89l-17.46-6.62L68 78.73A12.65 12.65 0 0075 86c3.56 1.46 7.39 1.14 9.85-1.32 2.45-2.46 2.77-6.29 1.32-9.85a12.71 12.71 0 00-7.32-6.94zM21.18 67.89l17.46-6.62L32 78.73A12.64 12.64 0 0125 86c-3.55 1.46-7.38 1.14-9.84-1.32s-2.78-6.29-1.32-9.85a12.65 12.65 0 017.34-6.94z"/><path class="hcls-1" d="M99.47 57.45a50.42 50.42 0 00.53-7.31 51.26 51.26 0 00-.57-7.59h-42V.53A50.42 50.42 0 0050.14 0a51.26 51.26 0 00-7.59.57v42H.57A51.26 51.26 0 000 50.14a50.42 50.42 0 00.53 7.31h42v42a51.26 51.26 0 007.59.57 50.42 50.42 0 007.31-.53v-42z"/></svg></svg>